<mxfile host="app.diagrams.net" agent="Mozilla/5.0 (Windows NT 10.0; Win64; x64; rv:134.0) Gecko/20100101 Firefox/134.0" version="26.0.6">
  <diagram name="Page-1" id="gnreM0z4YrqIUYt_1SDl">
    <mxGraphModel dx="1434" dy="746" grid="1" gridSize="10" guides="1" tooltips="1" connect="1" arrows="1" fold="1" page="1" pageScale="1" pageWidth="850" pageHeight="1100" math="0" shadow="0">
      <root>
        <mxCell id="0" />
        <mxCell id="1" parent="0" />
        <mxCell id="0fSeM2uBWUoYDaxNVOBh-5" style="edgeStyle=orthogonalEdgeStyle;rounded=0;orthogonalLoop=1;jettySize=auto;html=1;entryX=0.5;entryY=0;entryDx=0;entryDy=0;" edge="1" parent="1" source="0fSeM2uBWUoYDaxNVOBh-1" target="0fSeM2uBWUoYDaxNVOBh-2">
          <mxGeometry relative="1" as="geometry" />
        </mxCell>
        <mxCell id="0fSeM2uBWUoYDaxNVOBh-1" value="Game Engine" style="rounded=0;whiteSpace=wrap;html=1;" vertex="1" parent="1">
          <mxGeometry x="280" y="40" width="280" height="80" as="geometry" />
        </mxCell>
        <mxCell id="0fSeM2uBWUoYDaxNVOBh-29" style="edgeStyle=orthogonalEdgeStyle;rounded=0;orthogonalLoop=1;jettySize=auto;html=1;exitX=0.75;exitY=1;exitDx=0;exitDy=0;entryX=0;entryY=0.25;entryDx=0;entryDy=0;" edge="1" parent="1" source="0fSeM2uBWUoYDaxNVOBh-2" target="0fSeM2uBWUoYDaxNVOBh-26">
          <mxGeometry relative="1" as="geometry" />
        </mxCell>
        <mxCell id="0fSeM2uBWUoYDaxNVOBh-30" style="edgeStyle=orthogonalEdgeStyle;rounded=0;orthogonalLoop=1;jettySize=auto;html=1;exitX=0.75;exitY=1;exitDx=0;exitDy=0;entryX=0;entryY=0.5;entryDx=0;entryDy=0;" edge="1" parent="1" source="0fSeM2uBWUoYDaxNVOBh-2" target="0fSeM2uBWUoYDaxNVOBh-26">
          <mxGeometry relative="1" as="geometry" />
        </mxCell>
        <mxCell id="0fSeM2uBWUoYDaxNVOBh-31" style="edgeStyle=orthogonalEdgeStyle;rounded=0;orthogonalLoop=1;jettySize=auto;html=1;exitX=0.75;exitY=1;exitDx=0;exitDy=0;entryX=0;entryY=0.75;entryDx=0;entryDy=0;" edge="1" parent="1" source="0fSeM2uBWUoYDaxNVOBh-2" target="0fSeM2uBWUoYDaxNVOBh-26">
          <mxGeometry relative="1" as="geometry" />
        </mxCell>
        <mxCell id="0fSeM2uBWUoYDaxNVOBh-37" style="edgeStyle=orthogonalEdgeStyle;rounded=0;orthogonalLoop=1;jettySize=auto;html=1;exitX=0.25;exitY=1;exitDx=0;exitDy=0;entryX=1;entryY=0.5;entryDx=0;entryDy=0;" edge="1" parent="1" source="0fSeM2uBWUoYDaxNVOBh-2" target="0fSeM2uBWUoYDaxNVOBh-9">
          <mxGeometry relative="1" as="geometry" />
        </mxCell>
        <mxCell id="0fSeM2uBWUoYDaxNVOBh-2" value="Battle" style="rounded=0;whiteSpace=wrap;html=1;" vertex="1" parent="1">
          <mxGeometry x="280" y="160" width="280" height="40" as="geometry" />
        </mxCell>
        <mxCell id="0fSeM2uBWUoYDaxNVOBh-21" style="edgeStyle=orthogonalEdgeStyle;rounded=0;orthogonalLoop=1;jettySize=auto;html=1;exitX=0.25;exitY=1;exitDx=0;exitDy=0;entryX=0.5;entryY=0;entryDx=0;entryDy=0;" edge="1" parent="1" source="0fSeM2uBWUoYDaxNVOBh-9" target="0fSeM2uBWUoYDaxNVOBh-18">
          <mxGeometry relative="1" as="geometry" />
        </mxCell>
        <mxCell id="0fSeM2uBWUoYDaxNVOBh-33" style="edgeStyle=orthogonalEdgeStyle;rounded=0;orthogonalLoop=1;jettySize=auto;html=1;exitX=0.5;exitY=1;exitDx=0;exitDy=0;" edge="1" parent="1" source="0fSeM2uBWUoYDaxNVOBh-9" target="0fSeM2uBWUoYDaxNVOBh-19">
          <mxGeometry relative="1" as="geometry" />
        </mxCell>
        <mxCell id="0fSeM2uBWUoYDaxNVOBh-9" value="Player" style="whiteSpace=wrap;html=1;rounded=0;" vertex="1" parent="1">
          <mxGeometry x="240" y="240" width="80" height="80" as="geometry" />
        </mxCell>
        <mxCell id="0fSeM2uBWUoYDaxNVOBh-18" value="Attack" style="ellipse;whiteSpace=wrap;html=1;aspect=fixed;" vertex="1" parent="1">
          <mxGeometry x="230" y="360" width="40" height="40" as="geometry" />
        </mxCell>
        <mxCell id="0fSeM2uBWUoYDaxNVOBh-19" value="Spell" style="ellipse;whiteSpace=wrap;html=1;aspect=fixed;" vertex="1" parent="1">
          <mxGeometry x="260" y="400" width="40" height="40" as="geometry" />
        </mxCell>
        <mxCell id="0fSeM2uBWUoYDaxNVOBh-36" style="edgeStyle=orthogonalEdgeStyle;rounded=0;orthogonalLoop=1;jettySize=auto;html=1;entryX=0.5;entryY=0;entryDx=0;entryDy=0;" edge="1" parent="1" source="0fSeM2uBWUoYDaxNVOBh-26" target="0fSeM2uBWUoYDaxNVOBh-34">
          <mxGeometry relative="1" as="geometry" />
        </mxCell>
        <mxCell id="0fSeM2uBWUoYDaxNVOBh-26" value="Monsters" style="rounded=0;whiteSpace=wrap;html=1;" vertex="1" parent="1">
          <mxGeometry x="520" y="240" width="80" height="80" as="geometry" />
        </mxCell>
        <mxCell id="0fSeM2uBWUoYDaxNVOBh-34" value="Enemies also get their own Attack and Spell Objects" style="ellipse;whiteSpace=wrap;html=1;aspect=fixed;" vertex="1" parent="1">
          <mxGeometry x="510" y="360" width="100" height="100" as="geometry" />
        </mxCell>
        <mxCell id="0fSeM2uBWUoYDaxNVOBh-39" value="Input" style="triangle;whiteSpace=wrap;html=1;" vertex="1" parent="1">
          <mxGeometry x="160" y="40" width="120" height="80" as="geometry" />
        </mxCell>
        <mxCell id="0fSeM2uBWUoYDaxNVOBh-40" value="Output" style="triangle;whiteSpace=wrap;html=1;" vertex="1" parent="1">
          <mxGeometry x="560" y="40" width="120" height="80" as="geometry" />
        </mxCell>
      </root>
    </mxGraphModel>
  </diagram>
</mxfile>
